<?xml version="1.0" encoding="utf-8"?>
<svg version="1.1" id="Layer_1" xmlns="http://www.w3.org/2000/svg" xmlns:xlink="http://www.w3.org/1999/xlink" x="0px" y="0px" viewBox="0 0 55.2 38.4" style="enable-background:new 0 0 55.2 38.4" xml:space="preserve">
<style type="text/css">
.st0{fill:#009B3A;}
.st1{fill:#FEDF00;}
.st2{fill:#002776;}
.st3{fill:#FFFFFF;}
.st4{fill-rule:evenodd;clip-rule:evenodd;fill:#009B3A;}
</style>
<g>
<path class="st0" d="M3.03,0h49.13c1.67,0,3.03,1.36,3.03,3.03v32.33c0,1.67-1.36,3.03-3.03,3.03H3.03C1.36,38.4,0,37.04,0,35.37 V3.03C0,1.36,1.36,0,3.03,0L3.03,0z"/>
<polygon class="st1" points="4.24,19.2 27.6,34.11 50.96,19.2 27.6,4.29 4.24,19.2"/>
<path class="st2" d="M27.6,9.35c5.44,0,9.85,4.41,9.85,9.85c0,5.44-4.41,9.85-9.85,9.85c-5.44,0-9.85-4.41-9.85-9.85 C17.75,13.76,22.16,9.35,27.6,9.35L27.6,9.35z"/>
<path class="st3" d="M18.59,15.22c1.1-0.16,2.23-0.24,3.38-0.24c5.86,0,11.22,2.11,15.38,5.6c-0.07,0.54-0.19,1.06-0.35,1.56 c-3.98-3.58-9.25-5.76-15.03-5.76c-1.33,0-2.64,0.12-3.91,0.34C18.2,16.2,18.38,15.7,18.59,15.22L18.59,15.22z"/>
<path class="st4" d="M19.18,16.15c0.14-0.02,0.23-0.16,0.21-0.32c-0.02-0.16-0.15-0.28-0.28-0.26c-0.13,0.02-0.23,0.16-0.21,0.32 C18.92,16.05,19.04,16.16,19.18,16.15L19.18,16.15z M19.2,16.32c0.23-0.03,0.4-0.26,0.36-0.52c-0.03-0.26-0.24-0.44-0.48-0.41 c-0.23,0.03-0.39,0.26-0.36,0.52C18.76,16.16,18.97,16.35,19.2,16.32L19.2,16.32z"/>
</g>
</svg>
